<?xml version="1.0" standalone="no"?>
<!DOCTYPE svg PUBLIC "-//W3C//DTD SVG 20010904//EN"
 "http://www.w3.org/TR/2001/REC-SVG-20010904/DTD/svg10.dtd">
<svg version="1.0" xmlns="http://www.w3.org/2000/svg"
 width="768.000000pt" height="768.000000pt" viewBox="0 0 768.000000 768.000000"
 preserveAspectRatio="xMidYMid meet">
<metadata>
Created by potrace 1.11, written by Peter Selinger 2001-2013
</metadata>
<g transform="translate(0.000000,768.000000) scale(0.100000,-0.100000)"
fill="#000000" stroke="none">
<path d="M3157 6955 c-166 -43 -239 -150 -271 -398 -4 -26 -11 -71 -17 -100
-6 -29 -13 -65 -16 -82 -2 -16 -13 -68 -23 -115 -10 -47 -21 -96 -23 -110 -4
-22 -33 -161 -42 -200 -19 -87 -28 -121 -41 -159 -62 -183 -165 -282 -342
-328 -45 -12 -148 -16 -497 -18 -534 -4 -591 -8 -662 -41 -106 -51 -123 -99
-234 -674 -42 -215 -99 -520 -104 -550 -2 -14 -7 -36 -10 -50 -9 -47 -25 -125
-29 -150 -2 -14 -7 -36 -10 -50 -3 -14 -8 -42 -11 -63 -3 -21 -12 -71 -20
-110 -8 -40 -16 -83 -19 -97 -3 -14 -12 -63 -21 -110 -9 -47 -19 -96 -21 -110
-3 -14 -7 -32 -9 -40 -2 -8 -7 -29 -9 -45 -5 -26 -79 -383 -92 -440 -2 -11 -7
-51 -10 -90 -12 -136 30 -204 148 -237 54 -16 95 -17 298 -14 129 2 255 6 280
10 25 3 70 8 100 11 30 3 93 13 140 22 47 8 96 17 110 20 69 12 239 59 355 98
454 152 864 415 1238 795 129 131 284 309 362 415 151 206 322 403 525 606
349 349 647 562 1082 773 144 70 185 95 228 138 28 28 57 63 64 77 13 24 69
246 81 318 3 18 12 61 20 95 7 35 17 83 20 108 4 24 8 47 10 50 3 5 25 118 41
215 3 17 19 95 35 175 39 191 43 216 41 273 -2 94 -50 155 -144 183 -52 16
-2439 15 -2501 -1z"/>
<path d="M6395 5243 c-45 -4 -269 -31 -300 -37 -11 -2 -38 -7 -60 -11 -22 -4
-51 -9 -65 -12 -65 -11 -235 -58 -330 -90 -274 -92 -520 -216 -770 -387 -86
-59 -79 -53 -190 -142 -186 -149 -432 -397 -570 -574 -19 -25 -40 -52 -47 -60
-7 -8 -57 -72 -111 -142 -338 -436 -693 -778 -1062 -1022 -213 -140 -295 -185
-582 -320 -69 -32 -150 -103 -182 -160 -26 -44 -106 -387 -150 -641 -7 -43
-75 -391 -87 -445 -21 -97 -22 -179 -4 -226 22 -57 77 -99 148 -113 83 -16
2439 -8 2497 8 130 38 197 112 233 261 16 66 21 88 32 170 6 39 88 450 101
505 3 11 7 34 10 50 38 227 135 394 265 458 115 56 148 59 604 63 496 3 585 8
651 30 103 34 138 95 191 334 13 63 27 125 29 138 2 12 8 48 14 80 6 31 12 68
15 82 3 14 13 61 21 105 8 44 26 135 40 203 13 68 26 138 29 155 3 18 10 55
15 82 5 28 12 61 14 75 60 324 78 421 86 450 5 19 11 51 14 70 2 19 7 46 10
60 3 14 8 36 10 50 2 14 12 61 21 105 9 44 19 91 21 105 2 14 9 45 14 70 5 25
12 56 14 70 2 14 19 93 36 175 64 302 37 382 -140 424 -40 9 -384 12 -485 4z"/>
</g>
</svg>
